<svg width="56" height="56" viewBox="0 0 56 56" fill="none" xmlns="http://www.w3.org/2000/svg">
<circle cx="28" cy="28" r="28" fill="#FFF5EE"/>
<path d="M31.667 16.8517L21.8486 26.7472C21.5191 27.0794 21.334 27.5299 21.334 27.9997C21.334 28.4694 21.5191 28.9199 21.8486 29.2521L31.667 39.1477C31.9128 39.3953 32.2259 39.564 32.5668 39.6323C32.9077 39.7006 33.2611 39.6656 33.5822 39.5315C33.9034 39.3975 34.1778 39.1705 34.371 38.8792C34.5641 38.588 34.6672 38.2455 34.6673 37.8952V18.1041C34.6672 17.7538 34.5641 17.4114 34.371 17.1201C34.1778 16.8289 33.9034 16.6019 33.5822 16.4678C33.2611 16.3338 32.9077 16.2987 32.5668 16.367C32.2259 16.4353 31.9128 16.604 31.667 16.8517Z" fill="#104C9A"/>
</svg>
