<svg width="56" height="56" viewBox="0 0 56 56" fill="none" xmlns="http://www.w3.org/2000/svg">
<circle cx="28" cy="28" r="28" fill="#FFF5EE"/>
<path d="M24.3343 39.1477L34.1527 29.2521C34.4822 28.9199 34.6673 28.4694 34.6673 27.9997C34.6673 27.5299 34.4822 27.0794 34.1527 26.7472L24.3343 16.8517C24.0885 16.604 23.7754 16.4353 23.4345 16.367C23.0936 16.2987 22.7402 16.3338 22.4191 16.4678C22.0979 16.6019 21.8235 16.8289 21.6303 17.1201C21.4372 17.4114 21.3341 17.7538 21.334 18.1041V37.8952C21.3341 38.2455 21.4372 38.588 21.6303 38.8792C21.8235 39.1705 22.0979 39.3975 22.4191 39.5315C22.7402 39.6656 23.0936 39.7006 23.4345 39.6323C23.7754 39.564 24.0885 39.3953 24.3343 39.1477Z" fill="#104C9A"/>
</svg>
