<svg width="18" height="18" viewBox="0 0 18 18" fill="none" xmlns="http://www.w3.org/2000/svg">
<path d="M4.09949 9C4.09949 8.08523 4.32392 7.25 4.77278 6.49432C5.22163 5.73864 5.82106 5.1392 6.57105 4.69602C7.32672 4.24716 8.16194 4.02273 9.0767 4.02273C9.87215 4.02273 10.6079 4.19602 11.2841 4.54261C11.9602 4.88352 12.5198 5.35227 12.963 5.94886C13.4062 6.54545 13.6761 7.21591 13.7727 7.96023H11.5568C11.4545 7.43182 11.1647 7 10.6875 6.66477C10.2159 6.32386 9.67897 6.15341 9.0767 6.15341C8.55398 6.15341 8.07672 6.28125 7.6449 6.53693C7.21309 6.79261 6.86934 7.13636 6.61366 7.56818C6.35798 7.99432 6.23014 8.47159 6.23014 9C6.23014 9.52273 6.35798 10 6.61366 10.4318C6.86934 10.8636 7.21309 11.2074 7.6449 11.4631C8.07672 11.7188 8.55398 11.8466 9.0767 11.8466C9.67897 11.8466 10.1932 11.679 10.6193 11.3438C11.0454 11.0028 11.3125 10.5682 11.4204 10.0398H13.6363C13.5397 10.7841 13.2812 11.4545 12.8608 12.0511C12.4403 12.6477 11.9034 13.1193 11.25 13.4659C10.5966 13.8068 9.87215 13.9773 9.0767 13.9773C8.16194 13.9773 7.32672 13.7557 6.57105 13.3125C5.82106 12.8636 5.22163 12.2614 4.77278 11.5057C4.32392 10.75 4.09949 9.91477 4.09949 9ZM9 18C7.76138 18 6.59662 17.767 5.50572 17.3011C4.42051 16.8352 3.46313 16.1903 2.6336 15.3665C1.80974 14.5369 1.16202 13.5795 0.690436 12.4943C0.224532 11.4091 -0.00557912 10.2443 0.000102684 9C0.00578437 7.75568 0.241577 6.59091 0.707481 5.50568C1.17907 4.42045 1.82679 3.46591 2.65064 2.64205C3.47449 1.8125 4.42903 1.16477 5.51424 0.698864C6.59946 0.232955 7.76138 0 9 0C10.2443 0 11.4091 0.232955 12.4943 0.698864C13.5852 1.16477 14.5397 1.8125 15.3579 2.64205C16.1817 3.46591 16.8266 4.42045 17.2925 5.50568C17.7584 6.59091 17.9942 7.75568 17.9999 9C18.0056 10.2443 17.7755 11.4091 17.3096 12.4943C16.8437 13.5795 16.1988 14.5369 15.3749 15.3665C14.5511 16.1903 13.5937 16.8352 12.5028 17.3011C11.4119 17.767 10.2443 18 9 18ZM9 15.733C9.93181 15.733 10.8068 15.5597 11.625 15.2131C12.4431 14.8665 13.159 14.3864 13.7727 13.7727C14.392 13.1534 14.8749 12.4375 15.2215 11.625C15.5681 10.8068 15.7386 9.93466 15.7329 9.00852C15.7329 8.0767 15.5567 7.2017 15.2045 6.38352C14.8579 5.56534 14.3749 4.84943 13.7556 4.2358C13.142 3.61648 12.4289 3.13352 11.6164 2.78693C10.804 2.44034 9.93181 2.26704 9 2.26704C8.07387 2.26704 7.20457 2.44034 6.39208 2.78693C5.57958 3.13352 4.86368 3.61648 4.24437 4.2358C3.63074 4.85511 3.14779 5.57386 2.79553 6.39205C2.44326 7.20455 2.26712 8.0767 2.26712 9.00852C2.26144 9.92898 2.43189 10.7983 2.77848 11.6165C3.13075 12.429 3.6137 13.1449 4.22733 13.7642C4.84664 14.3778 5.56254 14.8608 6.37503 15.2131C7.1932 15.5597 8.06819 15.733 9 15.733Z" fill="#CECECE"/>
</svg>
