<svg width="30" height="30" viewBox="0 0 30 30" fill="none" xmlns="http://www.w3.org/2000/svg">
<path d="M11.7852 28.9286V17.6786C11.7852 16.9682 12.0674 16.2869 12.5697 15.7845C13.072 15.2822 13.7533 15 14.4637 15V15C15.1741 15 15.8554 15.2822 16.3578 15.7845C16.8601 16.2869 17.1423 16.9682 17.1423 17.6786V23.5714H21.428C22.5647 23.5714 23.6547 24.023 24.4585 24.8267C25.2622 25.6304 25.7137 26.7205 25.7137 27.8571V28.9286" stroke="#FFF5EE" stroke-width="2" stroke-linecap="round" stroke-linejoin="round"/>
<path d="M7.26373 18.4494C5.84099 17.0256 4.87232 15.212 4.48019 13.2377C4.08806 11.2635 4.29007 9.21728 5.06068 7.35783C5.83129 5.49838 7.13591 3.90915 8.8096 2.79105C10.4833 1.67294 12.4509 1.07617 14.4637 1.07617C16.4765 1.07617 18.4442 1.67294 20.1179 2.79105C21.7916 3.90915 23.0962 5.49838 23.8668 7.35783C24.6374 9.21728 24.8394 11.2635 24.4473 13.2377C24.0551 15.212 23.0865 17.0256 21.6637 18.4494" stroke="#FFF5EE" stroke-width="2" stroke-linecap="round" stroke-linejoin="round"/>
</svg>
