<svg width="32" height="33" viewBox="0 0 32 33" fill="none" xmlns="http://www.w3.org/2000/svg">
<g clip-path="url(#clip0_1431_6602)">
<path d="M16 0.666992C11.658 0.666992 11.112 0.686992 9.406 0.762992C7.7 0.842992 6.538 1.11099 5.52 1.50699C4.45219 1.90863 3.48498 2.53864 2.686 3.35299C1.87215 4.15238 1.24221 5.11947 0.84 6.18699C0.444 7.20299 0.174 8.36699 0.096 10.067C0.02 11.777 0 12.321 0 16.669C0 21.013 0.02 21.557 0.096 23.263C0.176 24.967 0.444 26.129 0.84 27.147C1.25 28.199 1.796 29.091 2.686 29.981C3.574 30.871 4.466 31.419 5.518 31.827C6.538 32.223 7.698 32.493 9.402 32.571C11.11 32.647 11.654 32.667 16 32.667C20.346 32.667 20.888 32.647 22.596 32.571C24.298 32.491 25.464 32.223 26.482 31.827C27.5491 31.4252 28.5156 30.7951 29.314 29.981C30.204 29.091 30.75 28.199 31.16 27.147C31.554 26.129 31.824 24.967 31.904 23.263C31.98 21.557 32 21.013 32 16.667C32 12.321 31.98 11.777 31.904 10.069C31.824 8.36699 31.554 7.20299 31.16 6.18699C30.7578 5.11944 30.1279 4.15234 29.314 3.35299C28.5153 2.53834 27.548 1.90828 26.48 1.50699C25.46 1.11099 24.296 0.840992 22.594 0.762992C20.886 0.686992 20.344 0.666992 15.996 0.666992H16.002H16ZM14.566 3.55099H16.002C20.274 3.55099 20.78 3.56499 22.466 3.64299C24.026 3.71299 24.874 3.97499 25.438 4.19299C26.184 4.48299 26.718 4.83099 27.278 5.39099C27.838 5.95099 28.184 6.48299 28.474 7.23099C28.694 7.79299 28.954 8.64099 29.024 10.201C29.102 11.887 29.118 12.393 29.118 16.663C29.118 20.933 29.102 21.441 29.024 23.127C28.954 24.687 28.692 25.533 28.474 26.097C28.2175 26.7917 27.8081 27.4199 27.276 27.935C26.716 28.495 26.184 28.841 25.436 29.131C24.876 29.351 24.028 29.611 22.466 29.683C20.78 29.759 20.274 29.777 16.002 29.777C11.73 29.777 11.222 29.759 9.536 29.683C7.976 29.611 7.13 29.351 6.566 29.131C5.871 28.8748 5.24225 28.4661 4.726 27.935C4.1935 27.4191 3.78345 26.7903 3.526 26.095C3.308 25.533 3.046 24.685 2.976 23.125C2.9 21.439 2.884 20.933 2.884 16.659C2.884 12.387 2.9 11.883 2.976 10.197C3.048 8.63699 3.308 7.78899 3.528 7.22499C3.818 6.47899 4.166 5.94499 4.726 5.38499C5.286 4.82499 5.818 4.47899 6.566 4.18899C7.13 3.96899 7.976 3.70899 9.536 3.63699C11.012 3.56899 11.584 3.54899 14.566 3.54699V3.55099ZM24.542 6.20699C24.2899 6.20699 24.0402 6.25665 23.8072 6.35314C23.5743 6.44963 23.3626 6.59106 23.1844 6.76935C23.0061 6.94764 22.8646 7.1593 22.7682 7.39224C22.6717 7.62519 22.622 7.87485 22.622 8.12699C22.622 8.37913 22.6717 8.6288 22.7682 8.86174C22.8646 9.09469 23.0061 9.30635 23.1844 9.48464C23.3626 9.66293 23.5743 9.80435 23.8072 9.90084C24.0402 9.99733 24.2899 10.047 24.542 10.047C25.0512 10.047 25.5396 9.84471 25.8996 9.48464C26.2597 9.12457 26.462 8.63621 26.462 8.12699C26.462 7.61778 26.2597 7.12942 25.8996 6.76935C25.5396 6.40928 25.0512 6.20699 24.542 6.20699ZM16.002 8.45099C14.9121 8.43399 13.8298 8.63396 12.818 9.03927C11.8061 9.44458 10.885 10.0471 10.1083 10.8118C9.33157 11.5765 8.71473 12.4881 8.29368 13.4935C7.87264 14.4989 7.6558 15.578 7.6558 16.668C7.6558 17.758 7.87264 18.8371 8.29368 19.8425C8.71473 20.8479 9.33157 21.7594 10.1083 22.5241C10.885 23.2889 11.8061 23.8914 12.818 24.2967C13.8298 24.702 14.9121 24.902 16.002 24.885C18.1591 24.8513 20.2164 23.9708 21.73 22.4335C23.2435 20.8962 24.0918 18.8253 24.0918 16.668C24.0918 14.5106 23.2435 12.4398 21.73 10.9025C20.2164 9.36517 18.1591 8.48465 16.002 8.45099ZM16.002 11.333C17.4167 11.333 18.7734 11.895 19.7737 12.8953C20.774 13.8956 21.336 15.2523 21.336 16.667C21.336 18.0817 20.774 19.4384 19.7737 20.4387C18.7734 21.439 17.4167 22.001 16.002 22.001C14.5873 22.001 13.2306 21.439 12.2303 20.4387C11.23 19.4384 10.668 18.0817 10.668 16.667C10.668 15.2523 11.23 13.8956 12.2303 12.8953C13.2306 11.895 14.5873 11.333 16.002 11.333Z" fill="white"/>
</g>
<defs>
<clipPath id="clip0_1431_6602">
<rect width="32" height="32" fill="white" transform="translate(0 0.666992)"/>
</clipPath>
</defs>
</svg>
