<svg width="396" height="212" viewBox="0 0 396 212" fill="none" xmlns="http://www.w3.org/2000/svg">
<path d="M213.372 9.58909C212.082 9.78805 210.841 14.5376 208.346 17.0119C206.521 18.7976 204.244 18.6858 203.034 20.8935C202.574 21.7182 202.723 23.1261 202.202 24.4778C201.184 27.1813 197.598 27.4229 197.598 30.3686C197.585 33.5496 200.589 34.1572 203.189 36.4142C205.218 38.2311 205.417 39.4835 207.874 40.3639C209.972 41.0774 213.093 38.7456 215.904 39.5828C218.213 40.2713 220.422 40.7672 220.944 43.1359C221.402 45.3187 220.912 48.704 218.114 48.3137C217.17 48.2082 213.081 46.8315 208.054 47.3647C201.991 48.0533 195.071 50.0308 194.395 56.7842C194.023 60.5603 198.696 65.0125 203.207 64.1072C206.329 63.493 204.852 59.8166 206.552 58.0304C208.78 55.7427 221.402 66.0171 233.138 66.0171C238.078 66.0171 241.751 64.7709 245.401 60.9511C245.742 60.6596 246.158 60.0333 246.685 59.9959C247.182 60.0333 248.05 60.5229 248.336 60.7339C257.787 68.3236 264.93 83.547 299.664 83.7268C304.548 83.7513 310.114 86.0831 314.657 90.2251C318.709 93.9705 321.08 99.7927 323.382 105.702C326.857 114.57 333.088 123.195 342.533 132.794C343.048 133.308 350.824 139.348 351.444 139.801C351.544 139.863 352.115 141.227 351.917 141.989C351.687 147.744 350.849 164.48 363.335 165.236C366.388 165.391 365.587 163.246 365.587 161.77C365.581 158.856 365.047 155.96 366.587 152.977C368.69 148.873 362.125 146.981 362.317 138.108C362.454 131.492 356.893 132.62 354.069 127.579C352.444 124.658 350.998 123.108 351.103 119.536C351.736 99.4336 346.821 86.2255 344.37 82.9826C342.459 80.5333 340.876 79.5599 342.626 78.4249C353.046 71.5482 355.41 65.1487 355.41 65.1487C360.951 52.1334 365.935 40.246 372.805 35.0131C374.189 33.9337 377.738 31.2863 379.917 30.2444C386.327 27.2244 389.703 25.3956 391.565 23.5845C394.513 20.7137 396.84 14.7299 394.016 11.1024C390.504 6.62524 384.428 10.1784 381.747 11.7656C362.59 23.126 359.767 43.1667 353.132 54.6758C347.839 63.8713 339.232 70.6242 331.537 71.1761C325.765 71.6039 319.547 70.4382 313.354 67.7223C298.292 61.1247 290.051 52.6048 288.109 51.0982C284.062 47.979 252.649 17.1667 227.199 15.908C227.199 15.908 224.04 9.58954 223.246 9.48405C221.384 9.24815 219.479 13.2602 218.114 13.7258C216.829 14.153 214.67 9.37812 213.372 9.58909ZM101.334 193.488C98.938 193.432 96.9028 191.466 96.9028 189.035L96.909 109.714H70.7455V197.152C70.7455 201.437 74.2204 204.934 78.4837 204.934H124.214C128.508 204.934 131.94 201.437 131.94 197.152V109.714H105.802L105.777 189.035C105.777 191.466 103.741 193.432 101.334 193.488ZM188.934 109.714H149.335C144.65 109.714 140.833 113.522 140.833 118.253V204.934H167.021V125.421C167.04 122.985 169.013 121.056 171.446 121.056C173.891 121.056 175.852 122.941 175.908 125.353V204.934H201.99V125.352C202.022 122.941 203.983 121.056 206.421 121.056C208.842 121.056 210.84 122.984 210.859 125.421V204.934H237.047V118.253C237.047 113.522 233.224 109.714 228.539 109.714H188.934ZM35.7323 125.588C35.751 122.941 33.5915 121.056 31.3014 121.056H26.8581V169.217H31.3014C33.6102 169.217 35.7514 167.382 35.7323 164.747V125.588ZM53.2885 181.005H26.8581V204.934H0.707031V109.714H53.4565C58.1786 109.714 61.8647 113.546 61.8647 118.29V172.43C61.8647 177.18 58.0361 181.005 53.2885 181.005ZM326.789 183.641C321.533 183.641 317.12 188.18 317.12 193.68C317.12 199.199 321.533 203.7 326.957 203.7C332.337 203.7 336.694 199.199 336.694 193.68C336.694 188.167 332.337 183.641 326.956 183.641H326.789ZM338.568 193.649C338.568 200.116 333.379 205.375 326.957 205.375C320.465 205.375 315.253 200.154 315.253 193.649C315.253 187.268 320.465 181.935 326.764 181.935C333.379 181.935 338.568 187.107 338.568 193.649Z" fill="black"/>
<path d="M324.932 192.904C326.75 192.904 327.705 192.259 327.705 190.97C327.705 189.822 326.781 189.234 325.013 189.234H324.492V192.904H324.932ZM331.626 200.432H328.506L324.492 195.093V200.432H321.942V186.933H324.622C328.264 186.933 330.199 188.31 330.199 190.939C330.199 192.693 329.058 194.25 327.463 194.715L327.277 194.783L331.626 200.432ZM280.154 169.236V125.39C280.092 122.965 278.138 121.105 275.7 121.105C273.286 121.105 271.289 123.039 271.271 125.458V169.236H280.154ZM280.154 204.934V181.03H271.271V204.934H245.141V118.252C245.141 113.521 248.955 109.714 253.64 109.714H297.785C302.481 109.714 306.296 113.521 306.296 118.252V204.934L280.154 204.934Z" fill="black"/>
</svg>
