<svg width="19" height="18" viewBox="0 0 19 18" fill="none" xmlns="http://www.w3.org/2000/svg">
<path d="M8.15007 13.05C7.08203 13.05 6.03799 12.7333 5.14995 12.1399C4.26192 11.5466 3.56978 10.7032 3.16106 9.71649C2.75234 8.72977 2.6454 7.64401 2.85376 6.59651C3.06213 5.54902 3.57643 4.58683 4.33164 3.83162C5.08686 3.07642 6.04906 2.56212 7.09657 2.35376C8.14408 2.1454 9.22985 2.25234 10.2166 2.66105C11.2033 3.06977 12.0467 3.7619 12.6401 4.64992C13.2334 5.53795 13.5501 6.58198 13.5501 7.65C13.5485 9.08167 12.9791 10.4543 11.9667 11.4666C10.9544 12.4789 9.58176 13.0484 8.15007 13.05ZM8.15007 3.6C7.34904 3.6 6.56601 3.83753 5.89998 4.28255C5.23395 4.72757 4.71485 5.36009 4.40831 6.10013C4.10177 6.84017 4.02157 7.65449 4.17784 8.44011C4.33411 9.22574 4.71984 9.94738 5.28625 10.5138C5.85266 11.0802 6.57431 11.4659 7.35994 11.6222C8.14557 11.7784 8.9599 11.6982 9.69995 11.3917C10.44 11.0852 11.0725 10.5661 11.5176 9.90006C11.9626 9.23404 12.2001 8.45101 12.2001 7.65C12.199 6.5762 11.772 5.54669 11.0127 4.7874C10.2534 4.02811 9.22388 3.60107 8.15007 3.6Z" fill="#366998"/>
<path d="M15.5751 15.75C15.3961 15.75 15.2245 15.6788 15.0979 15.5522L12.3979 12.8522C12.2749 12.7249 12.2069 12.5544 12.2084 12.3774C12.21 12.2004 12.2809 12.0311 12.4061 11.906C12.5312 11.7808 12.7005 11.7099 12.8775 11.7083C13.0545 11.7068 13.225 11.7748 13.3523 11.8978L16.0524 14.5978C16.1467 14.6922 16.211 14.8124 16.237 14.9434C16.2631 15.0743 16.2497 15.21 16.1986 15.3333C16.1475 15.4566 16.0611 15.562 15.9501 15.6362C15.8391 15.7104 15.7086 15.75 15.5751 15.75Z" fill="#366998"/>
</svg>
