<svg width="30" height="30" viewBox="0 0 30 30" fill="none" xmlns="http://www.w3.org/2000/svg">
<path d="M26.0992 16.0717H8.57061L6.42775 5.35742H27.8563C28.013 5.358 28.1677 5.39294 28.3094 5.45978C28.4512 5.52663 28.5765 5.62375 28.6766 5.74431C28.7768 5.86486 28.8492 6.00591 28.8889 6.1575C28.9286 6.3091 28.9345 6.46756 28.9063 6.62171L27.1492 15.1931C27.1082 15.441 26.9797 15.6659 26.7871 15.8271C26.5944 15.9883 26.3504 16.0751 26.0992 16.0717V16.0717Z" stroke="#FFF5EE" stroke-width="2" stroke-linecap="round" stroke-linejoin="round"/>
<path d="M6.42773 5.35798L5.52773 1.92941C5.47833 1.6874 5.34684 1.4699 5.1555 1.3137C4.96416 1.1575 4.72473 1.07222 4.47773 1.07227H1.07059" stroke="#FFF5EE" stroke-width="2" stroke-linecap="round" stroke-linejoin="round"/>
<path d="M8.57031 16.0723L9.47031 20.5723C9.51971 20.8143 9.65121 21.0318 9.84255 21.188C10.0339 21.3442 10.2733 21.4295 10.5203 21.4294H23.5703" stroke="#FFF5EE" stroke-width="2" stroke-linecap="round" stroke-linejoin="round"/>
<path d="M22.4989 28.93C21.9072 28.93 21.4275 28.4503 21.4275 27.8585C21.4275 27.2668 21.9072 26.7871 22.4989 26.7871C23.0906 26.7871 23.5703 27.2668 23.5703 27.8585C23.5703 28.4503 23.0906 28.93 22.4989 28.93Z" fill="#FFF5EE" stroke="#FFF5EE" stroke-linecap="round" stroke-linejoin="round"/>
<path d="M11.784 28.93C11.1923 28.93 10.7126 28.4503 10.7126 27.8585C10.7126 27.2668 11.1923 26.7871 11.784 26.7871C12.3758 26.7871 12.8555 27.2668 12.8555 27.8585C12.8555 28.4503 12.3758 28.93 11.784 28.93Z" fill="#FFF5EE" stroke="#FFF5EE" stroke-linecap="round" stroke-linejoin="round"/>
</svg>
