<svg width="22" height="22" viewBox="0 0 22 22" fill="none" xmlns="http://www.w3.org/2000/svg">
<path d="M2.93396 3.69231H18.0516C19.3165 3.69231 20.2638 4.85195 20.0113 6.09148L19.4535 8.83019C19.2791 9.68652 18.5689 10.3304 17.6996 10.4204L5.03711 11.7308M2.93396 3.69231L1.5 1.5M2.93396 3.69231L5.03711 11.7308M17.9906 14.6538H8.82335C7.04341 14.6538 5.48764 13.4528 5.03711 11.7308M8.66984 19.0384C8.66984 19.8456 8.02783 20.5 7.23588 20.5C6.44392 20.5 5.80191 19.8456 5.80191 19.0384C5.80191 18.2313 6.44392 17.5769 7.23588 17.5769C8.02783 17.5769 8.66984 18.2313 8.66984 19.0384ZM17.9906 19.0384C17.9906 19.8456 17.3486 20.5 16.5566 20.5C15.7647 20.5 15.1227 19.8456 15.1227 19.0384C15.1227 18.2313 15.7647 17.5769 16.5566 17.5769C17.3486 17.5769 17.9906 18.2313 17.9906 19.0384Z" stroke="#FFF5EC" stroke-width="2" stroke-linecap="round"/>
</svg>
