<svg width="32" height="33" viewBox="0 0 32 33" fill="none" xmlns="http://www.w3.org/2000/svg">
<g clip-path="url(#clip0_1431_6603)">
<path d="M32 16.333C32 20.5765 30.3143 24.6461 27.3137 27.6467C24.3131 30.6473 20.2435 32.333 16 32.333C11.7565 32.333 7.68687 30.6473 4.68629 27.6467C1.68571 24.6461 0 20.5765 0 16.333C0 12.0895 1.68571 8.01988 4.68629 5.0193C7.68687 2.01872 11.7565 0.333008 16 0.333008C20.2435 0.333008 24.3131 2.01872 27.3137 5.0193C30.3143 8.01988 32 12.0895 32 16.333ZM16.574 12.145C15.018 12.793 11.906 14.133 7.242 16.165C6.486 16.465 6.088 16.761 6.052 17.049C5.992 17.535 6.602 17.727 7.432 17.989L7.782 18.099C8.598 18.365 9.698 18.675 10.268 18.687C10.788 18.699 11.366 18.487 12.004 18.047C16.362 15.105 18.612 13.619 18.752 13.587C18.852 13.563 18.992 13.535 19.084 13.619C19.178 13.701 19.168 13.859 19.158 13.901C19.098 14.159 16.704 16.383 15.466 17.535C15.08 17.895 14.806 18.149 14.75 18.207C14.6267 18.333 14.5013 18.457 14.374 18.579C13.614 19.311 13.046 19.859 14.404 20.755C15.058 21.187 15.582 21.541 16.104 21.897C16.672 22.285 17.24 22.671 17.976 23.155C18.162 23.275 18.342 23.405 18.516 23.529C19.178 24.001 19.776 24.425 20.51 24.357C20.938 24.317 21.38 23.917 21.604 22.717C22.134 19.883 23.176 13.745 23.416 11.215C23.4306 11.0047 23.4219 10.7934 23.39 10.585C23.3712 10.4169 23.2898 10.2619 23.162 10.151C22.98 10.0254 22.7631 9.96031 22.542 9.96501C21.942 9.97501 21.016 10.297 16.574 12.145Z" fill="white"/>
</g>
<defs>
<clipPath id="clip0_1431_6603">
<rect width="32" height="32" fill="white" transform="translate(0 0.333008)"/>
</clipPath>
</defs>
</svg>
